<?xml version="1.0" encoding="UTF-8"?>
<svg width="120" height="120" viewBox="0 0 120 120" fill="none" xmlns="http://www.w3.org/2000/svg">
  <rect width="120" height="120" rx="60" fill="#E2136E"/>
  <path d="M50.5 36C50.5 36 44.5 40.5 44.5 45C44.5 49.5 48.5 53 48.5 57.5C48.5 62 44.5 65.5 44.5 70C44.5 74.5 50.5 79 50.5 79" stroke="white" stroke-width="4" stroke-linecap="round"/>
  <path d="M62.5 36C62.5 36 56.5 40.5 56.5 45C56.5 49.5 60.5 53 60.5 57.5C60.5 62 56.5 65.5 56.5 70C56.5 74.5 62.5 79 62.5 79" stroke="white" stroke-width="4" stroke-linecap="round"/>
  <path d="M74.5 36C74.5 36 68.5 40.5 68.5 45C68.5 49.5 72.5 53 72.5 57.5C72.5 62 68.5 65.5 68.5 70C68.5 74.5 74.5 79 74.5 79" stroke="white" stroke-width="4" stroke-linecap="round"/>
</svg>
